<svg width="18" height="21" viewBox="0 0 18 21" fill="none" xmlns="http://www.w3.org/2000/svg">
<path d="M6 11.0006H12" stroke="#C6C4C4" stroke-width="2" stroke-linecap="round" stroke-linejoin="round"/>
<path d="M6 14.0006H12" stroke="#C6C4C4" stroke-width="2" stroke-linecap="round" stroke-linejoin="round"/>
<path d="M2.25 2.75056H15.75C15.9489 2.75056 16.1397 2.82957 16.2803 2.97023C16.421 3.11088 16.5 3.30164 16.5 3.50056V17.7506C16.5 18.3473 16.2629 18.9196 15.841 19.3415C15.419 19.7635 14.8467 20.0006 14.25 20.0006H3.75C3.15326 20.0006 2.58097 19.7635 2.15901 19.3415C1.73705 18.9196 1.5 18.3473 1.5 17.7506V3.50056C1.5 3.30164 1.57902 3.11088 1.71967 2.97023C1.86032 2.82957 2.05109 2.75056 2.25 2.75056Z" stroke="#C6C4C4" stroke-width="2" stroke-linecap="round" stroke-linejoin="round"/>
<path d="M4.5 1.25056V4.25055" stroke="#C6C4C4" stroke-width="2" stroke-linecap="round" stroke-linejoin="round"/>
<path d="M9 1.25056V4.25055" stroke="#C6C4C4" stroke-width="2" stroke-linecap="round" stroke-linejoin="round"/>
<path d="M13.5 1.25056V4.25055" stroke="#C6C4C4" stroke-width="2" stroke-linecap="round" stroke-linejoin="round"/>
</svg>
