<svg width="21" height="29" viewBox="0 0 21 29" fill="none" xmlns="http://www.w3.org/2000/svg">
<path fill-rule="evenodd" clip-rule="evenodd" d="M6.79951 8.63013C6.86572 8.34749 6.9946 8.07529 7.18781 7.83486C7.84942 7.01152 9.0372 6.84459 9.90013 7.45366C10.1527 7.63192 10.3519 7.85866 10.4935 8.11277C13.4793 8.54725 16.088 11.0256 16.6529 15.0453C17.0182 17.6444 17.7504 19.0338 18.874 19.961C19.1525 20.1908 20.1083 20.8353 20.217 20.9184C20.4258 21.078 20.5633 21.3134 20.5999 21.5736L20.8782 23.5542C20.9551 24.1011 20.574 24.6067 20.0271 24.6836L14.9513 25.397C14.8407 26.407 14.35 27.3469 13.5174 28.0307C12.3568 28.9838 10.7608 29.2081 9.38244 28.6118C8.26197 28.1271 7.59244 27.5037 7.24077 26.4806L2.20231 27.1887C1.6554 27.2656 1.14974 26.8845 1.07287 26.3376L0.794526 24.3571C0.757952 24.0968 0.825288 23.8327 0.981969 23.6217C1.07045 23.5034 1.80758 22.6279 2.01067 22.3334C2.83528 21.1374 3.15573 19.602 2.78916 16.9937C2.22261 12.9625 4.04497 9.86763 6.79951 8.63013ZM9.31107 26.1896C9.48756 26.4302 9.75364 26.5933 10.1765 26.7762C10.8671 27.0749 11.6667 26.9625 12.2481 26.485C12.5174 26.2639 12.7141 25.9938 12.8345 25.6944L9.31107 26.1896Z" fill="url(#paint0_linear)"/>
<path d="M18.05 8C18.05 11.8338 14.8233 15 10.77 15C6.71665 15 3.48999 11.8338 3.48999 8C3.48999 4.16615 6.71665 1 10.77 1C14.8233 1 18.05 4.16615 18.05 8Z" fill="#FF9A00" stroke="white" stroke-width="2"/>
<defs>
<linearGradient id="paint0_linear" x1="2.54332" y1="-18.3849" x2="22.1509" y2="-16.9857" gradientUnits="userSpaceOnUse">
<stop stop-color="#53B2FC"/>
<stop offset="1" stop-color="#127CCE"/>
</linearGradient>
</defs>
</svg>
